<svg xmlns="http://www.w3.org/2000/svg" xmlns:xlink="http://www.w3.org/1999/xlink">
    <style type="text/css" >
      <![CDATA[

        text {
				-webkit-user-select:none;
				-moz-user-select:none;
				-ms-user-select: none;
				-ms-user-select: none;
				user-select: none;
				cursor:default;
        }

      ]]>
    </style>
  <defs
     id="defs4">
    <linearGradient
       id="linearGradient4319">
      <stop
         id="stop4321"
         offset="0"
         style="stop-color:#2f8b3c;stop-opacity:1;" />
      <stop
         id="stop4323"
         offset="1"
         style="stop-color:#2f8b3c;stop-opacity:0;" />
    </linearGradient>
    <linearGradient
       id="linearGradient4259">
      <stop
         id="stop4261"
         offset="0"
         style="stop-color:#0999c9;stop-opacity:1;" />
      <stop
         id="stop4263"
         offset="1"
         style="stop-color:#0999c9;stop-opacity:0;" />
    </linearGradient>
    <linearGradient
       id="linearGradient4202">
      <stop
         style="stop-color:#000000;stop-opacity:1;"
         offset="0"
         id="stop4245" />
      <stop
         style="stop-color:#000000;stop-opacity:0;"
         offset="1"
         id="stop4247" />
    </linearGradient>
    <linearGradient
       gradientTransform="matrix(0.70679873,0,0,0.70679873,-183.87768,-217.2108)"
       gradientUnits="userSpaceOnUse"
       y2="559.70355"
       x2="425.24796"
       y1="547.70355"
       x1="242.57167"
       id="linearGradient4210"
       xlink:href="#linearGradient4202" />
    <linearGradient
       gradientTransform="matrix(1,0,0,-1,-217.78889,355.48839)"
       gradientUnits="userSpaceOnUse"
       y2="180.36568"
       x2="171.46808"
       y1="179.36568"
       x1="254.91052"
       id="linearGradient4265"
       xlink:href="#linearGradient4259" />
    <linearGradient
       gradientTransform="translate(-217.2031,-318.19805)"
       gradientUnits="userSpaceOnUse"
       y2="459.84409"
       x2="105.79166"
       y1="461.2583"
       x1="254.67981"
       id="linearGradient4325"
       xlink:href="#linearGradient4319" />
  </defs>
  <g
     style="display:none"
     id="layer1">
    <path
       id="path3336"
       d="M 0.733281,1.9096069 C 18.0385,4.0186289 12.780609,36.183637 13.016256,47.993763 c 0.363379,18.211666 0,193.864797 0,290.797187 0,7.42047 -5.523427,-16.08212 21.203962,-22.21367 16.999386,-3.89984 15.145686,-19.00604 15.145686,-38.78469 L 49.894554,64.751657 49.4135,31.456129 C 49.4135,5.3960636 0.735688,1.7645345 0.735688,1.7645345"
       style="opacity:1;fill:url(#linearGradient4210);fill-opacity:1;fill-rule:evenodd;stroke:#000000;stroke-width:0.70679873;stroke-linecap:butt;stroke-linejoin:miter;stroke-miterlimit:4;stroke-dasharray:none;stroke-opacity:1" />
    <text
       transform="matrix(0,1,-1,0,0,0)"
       id="text4352"
       y="-24.456772"
       x="40.441433"
       style="font-style:italic;font-variant:normal;font-weight:bold;font-stretch:normal;font-size:28.27194977px;line-height:125%;font-family:'Times New Roman';-inkscape-font-specification:'Times New Roman, Bold Italic';text-align:start;letter-spacing:0px;word-spacing:0px;writing-mode:lr-tb;text-anchor:start;fill:#ffffff;fill-opacity:1;stroke:none;stroke-width:1px;stroke-linecap:butt;stroke-linejoin:miter;stroke-opacity:1"
       xml:space="preserve"><tspan
         y="-24.456772"
         x="40.441433"
         id="tspan4354">Opciones</tspan></text>
  </g>
  <g
     style="display:inline"
     id="layer2">
    <path
       id="path3336-4"
       d="m 38.386422,2.0395892 c -0.0552,8.6090198 -0.29733,37.2740298 -0.033,52.0841548 0.32509,18.21239 -0.17678,138.268606 -0.17678,235.200996 0,7.42047 5.7002,-11.48593 -21.02718,-17.61748 C 0.15007237,267.80742 2.0037724,252.70122 2.0037724,232.92257 l -0.52865,-162.040926 0.48105,-33.295535 c 0,-26.06007 36.4278196,-35.4415998 36.4278196,-35.4415998"
       style="opacity:1;fill:url(#linearGradient4265);fill-opacity:1;fill-rule:evenodd;stroke:#000000;stroke-width:0.70700002;stroke-linecap:butt;stroke-linejoin:miter;stroke-miterlimit:4;stroke-dasharray:none;stroke-opacity:1" />
    <text
       transform="matrix(0,-1,1,0,0,0)"
       id="text4352-1"
       y="28.313072"
       x="-203.20248"
       style="font-style:italic;font-variant:normal;font-weight:bold;font-stretch:normal;font-size:28.27194977px;line-height:125%;font-family:'Times New Roman';-inkscape-font-specification:'Times New Roman, Bold Italic';text-align:start;letter-spacing:0px;word-spacing:0px;writing-mode:lr-tb;text-anchor:start;fill:#ffffff;fill-opacity:1;stroke:none;stroke-width:1px;stroke-linecap:butt;stroke-linejoin:miter;stroke-opacity:1"
       xml:space="preserve"><tspan
         y="28.313072"
         x="-203.20248"
         id="tspan4354-6">Buscar materia</tspan></text>
  </g>
  <g
     style="display:none"
     id="layer3">
    <path
       id="path3336-4-2"
       d="m 37.971967,289.34526 c -0.0552,-8.60902 -0.29733,-37.27403 -0.033,-52.08416 0.32509,-18.21239 0.70711,-84.88203 0.70711,-181.814423 0,-4.32372 -0.0241,-11.5165 0.27416,-18.68632 0.39963,-9.60543 -6.30179,-19.02405 -23.06911,-21.67897 C 7.2379271,13.717587 4.9792171,9.9387769 2.7873871,0.4116869 1.2317971,-6.34992 2.2964271,52.285267 2.2964271,62.174587 l -1.23576,158.328613 0.48105,33.29554 c 0,26.06007 36.4278199,35.4416 36.4278199,35.4416"
       style="display:inline;opacity:1;fill:url(#linearGradient4325);fill-opacity:1;fill-rule:evenodd;stroke:#000000;stroke-width:0.70700002;stroke-linecap:butt;stroke-linejoin:miter;stroke-miterlimit:4;stroke-dasharray:none;stroke-opacity:1" />
    <text
       transform="matrix(0,-1,1,0,0,0)"
       id="text4352-1-9"
       y="26.959257"
       x="-262.6138"
       style="font-style:italic;font-variant:normal;font-weight:bold;font-stretch:normal;font-size:28.27194977px;line-height:125%;font-family:'Times New Roman';-inkscape-font-specification:'Times New Roman, Bold Italic';text-align:start;letter-spacing:0px;word-spacing:0px;writing-mode:lr-tb;text-anchor:start;display:inline;fill:#ffffff;fill-opacity:1;stroke:none;stroke-width:1px;stroke-linecap:butt;stroke-linejoin:miter;stroke-opacity:1"
       xml:space="preserve"><tspan
         y="26.959257"
         x="-262.6138"
         id="tspan4354-6-5">Agregar curso</tspan></text>
  </g>
</svg>
